<svg width="16" height="16" viewBox="0 0 16 16" fill="none" xmlns="http://www.w3.org/2000/svg">
  <path fillRule="evenodd" clipRule="evenodd" d="M8.00325 2.77924e-06C6.41874 -0.001316 4.86944 0.466724 3.55132 1.34497C2.2332 2.22322 1.20553 3.47223 0.598245 4.93392C-0.00903745 6.39561 -0.16865 8.00436 0.139664 9.55664C0.447978 11.1089 1.21036 12.535 2.33031 13.6545C3.45026 14.7739 4.87749 15.5366 6.43146 15.8458C7.98544 16.155 9.59635 15.997 11.0604 15.3917C12.5244 14.7864 13.7757 13.761 14.6562 12.4452C15.5366 11.1295 16.0066 9.58254 16.0066 8C16.007 6.94987 15.8004 5.90991 15.3984 4.93954C14.9964 3.96917 14.4071 3.08744 13.6639 2.34457C12.9207 1.6017 12.0383 1.0123 11.0671 0.610029C10.0958 0.207754 9.0547 0.000440428 8.00325 2.77924e-06ZM10.0058 5.33334H9.10465C8.7442 5.33334 8.67075 5.48002 8.67075 5.85336V6.66667H10.0058L9.86561 8H8.67075V12.6667H6.66825V8H5.33325V6.66667H6.66825V5.12663C6.66825 3.94663 7.28905 3.33334 8.6908 3.33334H10.0058V5.33334Z" fill="currentColor" />
</svg>
