<svg width="16" height="16" viewBox="0 0 16 16" fill="none" xmlns="http://www.w3.org/2000/svg">
  <path fillRule="evenodd" clipRule="evenodd" d="M7.99992 1.44002C10.1333 1.44002 10.3866 1.44665 11.2266 1.48665C13.3933 1.58665 14.4066 2.61335 14.4999 4.76668C14.5399 5.61335 14.5466 5.86667 14.5466 8C14.5466 10.1333 14.5399 10.3933 14.4999 11.2333C14.4066 13.3867 13.3933 14.4133 11.2266 14.5133C10.3866 14.5533 10.1333 14.56 7.99992 14.56C5.86658 14.56 5.6066 14.5533 4.7666 14.5133C2.59327 14.4133 1.59333 13.38 1.49333 11.2333C1.45333 10.3867 1.44661 10.14 1.44661 8C1.44661 5.86 1.45333 5.61335 1.49333 4.76668C1.59333 2.61335 2.59993 1.58665 4.7666 1.48665C5.61327 1.44665 5.85992 1.44002 7.99992 1.44002ZM7.99992 0C5.82658 0 5.55328 0.00663086 4.69995 0.0466309C1.79995 0.179964 0.186637 1.79337 0.053304 4.70003C0.013304 5.55337 0.0065918 5.82667 0.0065918 8C0.0065918 10.1733 0.013304 10.4466 0.053304 11.3C0.186637 14.2066 1.79328 15.82 4.69995 15.9534C5.55328 15.9934 5.82658 16 7.99992 16C10.1733 16 10.44 15.9934 11.2933 15.9534C14.1933 15.82 15.8066 14.2066 15.9399 11.3C15.9799 10.4466 15.9867 10.1733 15.9867 8C15.9867 5.82667 15.9799 5.55337 15.9399 4.70003C15.8133 1.80003 14.2 0.179964 11.2933 0.0466309C10.44 0.00663086 10.1666 0 7.99992 0ZM7.99992 3.89331C7.18741 3.89199 6.39285 4.13175 5.71663 4.58219C5.04042 5.03264 4.51302 5.67355 4.20117 6.42383C3.88933 7.17411 3.80698 7.99998 3.96468 8.79704C4.12238 9.59409 4.51302 10.3265 5.08708 10.9014C5.66114 11.4764 6.3929 11.8683 7.1897 12.0273C7.98649 12.1863 8.81253 12.1053 9.56331 11.7947C10.3141 11.4841 10.9558 10.9577 11.4074 10.2822C11.8589 9.60675 12.0999 8.81251 12.0999 8C12.0994 6.91216 11.6675 5.86896 10.8989 5.09912C10.1303 4.32928 9.08776 3.89561 7.99992 3.89331ZM7.99992 10.6667C7.47222 10.668 6.95601 10.5127 6.5166 10.2205C6.07719 9.92825 5.73435 9.5123 5.53149 9.02515C5.32864 8.53799 5.27489 8.00161 5.37703 7.48389C5.47917 6.96617 5.73263 6.49039 6.10531 6.11678C6.47798 5.74317 6.95316 5.48853 7.47062 5.38509C7.98809 5.28166 8.52455 5.33409 9.01221 5.53573C9.49986 5.73736 9.91673 6.07915 10.21 6.51782C10.5034 6.9565 10.66 7.4723 10.66 8C10.66 8.70609 10.3799 9.3834 9.88127 9.8833C9.38261 10.3832 8.70601 10.6649 7.99992 10.6667ZM12.2666 2.77336C12.0762 2.77204 11.8897 2.8274 11.7308 2.93237C11.5719 3.03735 11.4478 3.18719 11.3743 3.36287C11.3009 3.53856 11.2813 3.7321 11.3181 3.91895C11.3549 4.10579 11.4465 4.27745 11.5811 4.41211C11.7158 4.54677 11.8875 4.63838 12.0743 4.67521C12.2611 4.71204 12.4548 4.69246 12.6305 4.61898C12.8061 4.54549 12.956 4.42142 13.061 4.26253C13.1659 4.10364 13.2213 3.91708 13.22 3.72664C13.2196 3.47391 13.1191 3.23169 12.9403 3.05298C12.7616 2.87427 12.5193 2.77371 12.2666 2.77336Z" fill="currentColor" />
</svg>
