<svg width="35" height="64" viewBox="0 0 35 64" fill="none" xmlns="http://www.w3.org/2000/svg">
<path d="M17.3677 59.5853C18.9042 59.7672 21.6713 61.5229 21.6715 63.2362C21.6715 64.8393 19.2372 63.4516 18.4339 63.2578C16.5877 62.8129 14.2685 62.6622 12.3741 62.7884C11.7176 62.8321 9.41705 63.4103 9.06448 63.181C8.2117 62.6264 9.80524 60.5474 10.3857 60.1615C9.92321 59.7551 9.55743 59.1907 9.49002 58.5607C9.31881 58.4069 8.52213 59.3692 8.3402 59.523C6.58751 61.0043 4.08736 62.1812 1.74061 62.1568C1.51712 62.1545 0.0739055 61.9525 0.0185594 61.8851C-0.01055 61.8497 -0.000207618 61.656 0.0143471 61.5746C0.0610752 61.3127 2.05851 59.3665 2.44345 58.8774C9.94198 49.3502 1.90703 34.7613 4.17469 23.7229C5.43673 17.5795 9.16407 5.10307 16.2474 3.64932C16.5061 3.59608 17.0506 3.6679 17.1588 3.59972C17.1948 3.57732 17.353 2.98574 17.4549 2.80668C18.4904 0.985809 21.0627 -0.182587 23.139 0.0234795C23.8628 0.095295 24.1397 0.708702 23.651 1.19092C23.416 1.42265 23.0331 1.32095 22.9397 1.56609C23.7023 1.5251 26.5877 2.14962 26.4983 3.14814C26.42 4.01874 25.111 3.68896 24.5415 3.74603C23.9953 3.8008 22.6689 4.31826 22.3048 4.71143C22.1871 4.83859 22.098 4.82518 22.2313 5.02838C22.3023 5.13639 23.2767 5.73083 23.5119 5.9254C24.3521 6.6202 25.3985 7.94505 26.4723 8.08792C27.3222 8.20091 28.4006 8.12929 29.2777 8.22829C30.3021 8.34397 33.7504 8.89551 33.8274 10.2234C33.8934 11.3618 31.9458 10.5863 31.3259 10.5346C26.4267 10.1246 22.4965 12.9492 23.93 18.1866C24.9034 21.7433 27.6043 25.4072 29.2375 28.7604C33.7728 38.0709 32.6182 43.4707 29.9468 53.081C29.3796 55.1216 28.6821 57.096 27.9333 59.0724C30.0843 59.2166 32.7057 60.0736 34.0095 61.8987C34.2263 62.2022 34.8674 63.3976 34.4465 63.6646C34.1393 63.8597 31.977 63.1686 31.4186 63.0807C29.9229 62.8453 28.1014 62.7271 26.5904 62.7884C25.7847 62.8212 22.7304 63.352 22.2558 63.0535C21.4959 62.5757 22.6384 60.814 22.5383 60.4459C22.4994 60.3038 21.407 58.9303 21.1832 58.4594C20.8704 57.8012 20.6715 57.0903 20.5041 56.3838C18.7478 57.2745 16.9692 58.2548 15.5107 59.5853C16.1044 59.635 16.7878 59.5165 17.3677 59.5853ZM21.4015 3.48903C21.2492 3.33793 20.4508 4.5092 19.8558 3.68973C19.4678 3.15561 20.0619 2.57457 20.1869 2.08239C19.5718 2.33614 18.819 3.04454 18.5781 3.67403C18.4655 3.96799 18.4628 4.63865 18.2435 4.7796C17.8749 5.01688 16.8564 4.85219 16.357 4.91117C10.4954 5.60156 7.69673 16.5758 7.07605 21.3731C6.43909 26.2951 5.86782 32.5789 6.29029 37.4912C6.92361 44.8571 10.5456 53.2392 4.30721 59.3321L1.93556 61.1212C4.81682 60.5078 7.08294 58.5973 9.04457 56.5133C9.45497 56.0774 10.479 54.2843 11.1678 55.1541C11.5947 55.693 10.8329 56.5156 10.6389 57.0828C10.3867 57.8197 10.2614 58.5283 10.6609 59.2478C10.8199 59.5343 11.4183 59.8827 11.417 60.1617C11.416 60.3319 10.8825 60.8904 10.75 61.1639C10.6783 61.3119 10.4474 61.7206 10.6391 61.8307L19.4803 62.2742C19.1298 61.2688 17.7441 60.583 16.7631 60.3178C16.1183 60.1435 15.5833 60.1638 14.9697 60.0612C14.8105 60.0345 14.3856 60.0154 14.4871 59.7791C14.6558 59.3868 17.2484 57.3191 17.7734 56.917C18.8843 56.0659 20.3022 55.072 21.4909 54.4871C21.9505 54.2611 23.2917 53.3671 23.6435 54.0771C24.2624 55.3265 22.1242 55.3343 21.932 55.6325C21.6874 56.0119 22.2778 58.1884 22.4925 58.6869C22.9338 59.7113 23.8381 60.2146 23.4508 61.5067C26.5866 61.4456 29.7337 61.6108 32.8007 62.2735C31.719 60.9318 29.6333 60.6531 27.9965 60.4832C27.0654 60.3865 25.7359 60.8569 26.0733 59.325C30.2825 51.2944 31.367 41.0345 28.5768 32.3669C27.2236 28.1634 24.8421 24.2898 23.4836 20.1698C21.4566 14.0237 23.5541 10.9426 29.6006 9.57231C29.7423 9.54013 30.0146 9.57154 29.9824 9.38118C28.8437 9.14774 27.5918 9.24138 26.4749 9.10982C24.7152 8.9026 23.6335 7.24662 22.1604 6.38024C21.7401 6.133 20.3733 5.6458 20.2735 5.32005C19.9636 4.3083 21.6983 3.78395 21.4015 3.48903Z" fill="black"/>
<path d="M10.7724 48.9542C14.7288 47.1521 16.1708 42.8899 15.9002 38.7679C15.7993 37.231 15.329 35.5706 15.1428 34.0179C14.589 29.3977 14.4568 22.3027 17.5066 18.484C17.9168 17.9702 19.3024 16.4536 19.7722 17.6157C20.0125 18.2101 18.7298 19.0677 18.3504 19.5838C16.735 21.782 16.1415 25.5865 16.0176 28.2657C15.6844 35.4774 19.5996 45.4965 11.5794 49.9547C10.9333 50.3139 9.82231 51.0694 9.38376 50.1458C9.7166 47.4922 9.87383 44.7791 9.7526 42.0978C9.53984 37.3959 7.90167 31.3239 9.55286 26.7959C9.75835 26.2325 10.1598 25.7663 10.5186 26.4764C10.1305 28.2389 9.9309 30.055 9.99812 31.8622C10.1274 35.3318 11.0112 38.7619 11.1613 42.2258C11.2581 44.4574 11.0662 46.7471 10.7724 48.9542Z" fill="black"/>
</svg>
