<svg width="16" height="16" viewBox="0 0 16 16" fill="none" xmlns="http://www.w3.org/2000/svg">
  <path fillRule="evenodd" clipRule="evenodd" d="M12.6626 0H3.32423C2.44023 0.0017658 1.59305 0.353748 0.968586 0.978678C0.344125 1.60361 -0.00659356 2.45043 -0.0065918 3.33333V12.6667C-0.00659356 13.5496 0.344125 14.3964 0.968586 15.0213C1.59305 15.6463 2.44023 15.9982 3.32423 16H12.6626C13.5478 16 14.3967 15.6488 15.0226 15.0237C15.6485 14.3986 16.0002 13.5507 16.0002 12.6667V3.33333C16.0002 2.44928 15.6485 1.60144 15.0226 0.976318C14.3967 0.351197 13.5478 0 12.6626 0ZM5.32674 12.6667H3.32423V5.33333H5.32674V12.6667ZM4.32548 4.48665C4.09191 4.48864 3.86305 4.42128 3.66792 4.29305C3.47279 4.16482 3.32024 3.98154 3.22963 3.76652C3.13902 3.5515 3.11448 3.31437 3.15907 3.08537C3.20366 2.85637 3.31541 2.64582 3.48011 2.48039C3.6448 2.31496 3.85494 2.20217 4.08397 2.15633C4.313 2.11049 4.5505 2.13363 4.7663 2.2229C4.9821 2.31217 5.16652 2.46356 5.29602 2.65771C5.42552 2.85187 5.49426 3.08003 5.49361 3.31331C5.49431 3.46703 5.46463 3.6194 5.40626 3.76164C5.34789 3.90387 5.26203 4.03316 5.1535 4.14217C5.04498 4.25118 4.91596 4.33778 4.77388 4.39689C4.6318 4.456 4.4794 4.48648 4.32548 4.48665ZM13.3301 12.6667H11.3276V8.93335C11.3276 6.68668 8.66424 6.85335 8.66424 8.93335V12.6667H6.66174V5.33333H8.66424V6.50667C9.59207 4.78667 13.3301 4.65999 13.3301 8.15999V12.6667Z" fill="currentColor" />
</svg>
