<svg width="16" height="16" viewBox="0 0 16 16" fill="none" xmlns="http://www.w3.org/2000/svg">
  <path fillRule="evenodd" clipRule="evenodd" d="M15.2572 6.53287C13.6335 10.5367 9.69596 15.9923 7.21116 15.9923C4.75923 15.9923 4.40422 9.97892 3.06979 5.9751C2.41244 4.01139 1.98522 4.46216 0.749393 5.45548L0 4.33994C1.80115 2.51377 3.60224 0.404936 4.7066 0.282682C5.95557 0.145146 6.7181 1.1308 7.00734 3.2244C7.3886 5.98276 7.91451 10.2616 8.84138 10.2616C9.56447 10.2616 11.3394 6.86905 11.4314 5.65415C11.5892 3.87382 10.2941 3.8204 9.16348 4.37818C10.9515 -2.33815 18.3665 -1.10801 15.2572 6.53287Z" fill="currentColor" />
</svg>
